<?xml version="1.0" encoding="utf-8"?>
<svg version="1.1" xmlns:xlink="http://www.w3.org/1999/xlink" width="162px" height="90px" xmlns="http://www.w3.org/2000/svg">
  <g>
    <path d="M 0 0  L 162 0  L 162 90  L 0 90  L 0 0  " fill-rule="nonzero" fill="#cccccc" stroke="none" />
    <path d="M 6 6  L 156 6  L 156 84  L 6 84  L 6 6  " fill-rule="nonzero" fill="#ffffff" stroke="none" />
    <path d="M 90.99 27  C 87.21 27  84.24 24.03  84.24 20.25  C 84.24 16.47  87.21 13.5  90.99 13.5  C 94.77 13.5  97.74 16.47  97.74 20.25  C 97.74 24.03  94.77 27  90.99 27  " fill-rule="nonzero" fill="#cccccc" stroke="none" />
    <path d="M 9 82  L 9 41.85  L 45.25 23.6  L 96 57.6666666666667  L 125 34.55  L 154 57.6666666666667  L 154 82  L 9 82  " fill-rule="nonzero" fill="#169bd5" stroke="none" />
  </g>
</svg>