<?xml version="1.0" encoding="utf-8"?>
<svg version="1.1" xmlns:xlink="http://www.w3.org/1999/xlink" width="293px" height="200px" xmlns="http://www.w3.org/2000/svg">
  <g>
    <path d="M 0 0  L 293 0  L 293 200  L 0 200  L 0 0  " fill-rule="nonzero" fill="#cccccc" stroke="none" />
    <path d="M 14 14  L 279 14  L 279 186  L 14 186  L 14 14  " fill-rule="nonzero" fill="#ffffff" stroke="none" />
    <path d="M 167.36 60  C 158.96 60  152.36 53.4  152.36 45  C 152.36 36.6  158.96 30  167.36 30  C 175.76 30  182.36 36.6  182.36 45  C 182.36 53.4  175.76 60  167.36 60  " fill-rule="nonzero" fill="#cccccc" stroke="none" />
    <path d="M 19 181  L 19 91.9  L 82.75 51.4  L 172 114.651877133106  L 223 75.7  L 274 114.651877133106  L 274 181  L 19 181  " fill-rule="nonzero" fill="#169bd5" stroke="none" />
  </g>
</svg>